<svg width="164" height="249" viewBox="0 0 164 249" fill="none" xmlns="http://www.w3.org/2000/svg">
<path d="M81.5563 167.381L22.8672 248.643V198.983L23.0635 198.738L77.6797 123.266H163.162L140.344 154.77H90.6345L86.4143 160.609H112.52L140.393 199.179V248.839L81.5563 167.381ZM70.6625 123.266H0L22.8181 154.77H47.8444L70.6625 123.266ZM78.0722 113.059L54.6653 81.8011C46.5685 69.288 48.237 51.4751 58.8363 40.8758C71.2514 28.4608 91.8122 28.608 104.227 41.023C110.361 47.1569 113.502 55.3518 113.502 63.5957C113.502 69.4352 111.882 75.3237 108.644 80.5253L81.8507 117.378H117.575L132.688 96.4243C148.146 72.4776 145.153 40.0416 125.622 19.2354C101.921 -6.03628 61.7315 -6.28164 38.3737 17.7632C17.5675 39.2073 14.5251 72.6248 30.5713 96.915L45.3418 117.378H74.7845L78.0722 113.059Z" fill="#0074FF"/>
</svg>
